<?xml version="1.0" standalone="no"?>
<!DOCTYPE svg PUBLIC "-//W3C//DTD SVG 20010904//EN"
 "http://www.w3.org/TR/2001/REC-SVG-20010904/DTD/svg10.dtd">
<svg version="1.0" xmlns="http://www.w3.org/2000/svg"
 width="512.000000pt" height="512.000000pt" viewBox="0 0 512.000000 512.000000"
 preserveAspectRatio="xMidYMid meet">

<g transform="translate(0.000000,512.000000) scale(0.100000,-0.100000)"
fill="#000000" stroke="none">
<path d="M2418 5110 c-315 -57 -549 -259 -627 -539 -56 -201 -26 -476 80 -731
83 -200 203 -373 389 -561 154 -155 259 -239 301 -239 41 0 136 76 294 234
148 149 227 249 312 397 163 285 230 638 167 884 -37 144 -127 286 -240 379
-143 118 -302 175 -504 181 -69 2 -146 0 -172 -5z m355 -348 c10 -4 46 -41 80
-81 46 -55 80 -84 134 -114 101 -57 107 -74 73 -237 -24 -118 -96 -267 -174
-362 -91 -110 -267 -238 -327 -238 -35 0 -141 66 -215 133 -87 80 -149 164
-206 284 -43 90 -98 265 -98 314 0 38 23 65 78 94 69 36 120 80 169 147 20 27
45 54 57 58 25 10 403 12 429 2z"/>
<path d="M2372 4551 c-45 -51 -121 -112 -154 -123 -17 -6 25 -131 77 -236 49
-97 143 -209 222 -264 l45 -30 54 37 c119 82 222 219 268 357 39 114 36 126
-35 171 -33 22 -79 63 -102 92 l-42 54 -141 0 -141 1 -51 -59z m467 -107 c42
-53 39 -58 -147 -271 -113 -129 -141 -152 -181 -153 -20 0 -168 148 -175 176
-4 13 -1 34 5 47 31 58 82 62 138 12 l39 -35 111 125 c107 119 114 125 151
125 30 0 43 -6 59 -26z"/>
<path d="M1960 2629 c-316 -181 -581 -337 -587 -346 -19 -25 -16 -67 6 -94
l19 -24 309 -5 310 -5 -608 -1025 c-405 -683 -608 -1034 -609 -1053 0 -17 10
-38 25 -52 l24 -25 840 0 840 0 -24 25 c-25 24 -25 26 -25 215 0 189 0 191 25
215 15 16 36 25 55 25 19 0 40 -9 55 -25 25 -24 25 -26 25 -215 0 -189 0 -191
-25 -215 l-24 -25 840 0 840 0 24 25 c15 14 25 35 25 52 -1 19 -204 370 -609
1053 l-608 1025 310 5 309 5 19 24 c24 29 24 73 2 99 -28 32 -1157 672 -1184
671 -13 0 -283 -148 -599 -330z m655 -254 c25 -24 25 -26 25 -215 0 -189 0
-191 -25 -215 -15 -16 -36 -25 -55 -25 -19 0 -40 9 -55 25 -25 24 -25 26 -25
215 0 189 0 191 25 215 15 16 36 25 55 25 19 0 40 -9 55 -25z m0 -640 c25 -24
25 -26 25 -215 0 -189 0 -191 -25 -215 -15 -16 -36 -25 -55 -25 -19 0 -40 9
-55 25 -25 24 -25 26 -25 215 0 189 0 191 25 215 15 16 36 25 55 25 19 0 40
-9 55 -25z m0 -640 c25 -24 25 -26 25 -215 0 -189 0 -191 -25 -215 -32 -33
-78 -33 -110 0 -25 24 -25 26 -25 215 0 189 0 191 25 215 15 16 36 25 55 25
19 0 40 -9 55 -25z"/>
</g>
</svg>
